HIERARCHY
ROOT root
{
	OFFSET 0.000000 0.000000 0.000000
	CHANNELS 6 Xposition Yposition Zposition Zrotation Yrotation Xrotation
	JOINT lhip
	{
		OFFSET 0.058581 -0.082280 -0.017664
		CHANNELS 3 Zrotation Yrotation Xrotation
		JOINT lknee
		{
			OFFSET 0.043451 -0.386469 0.008037
			CHANNELS 3 Zrotation Yrotation Xrotation
			JOINT lankle
			{
				OFFSET -0.014790 -0.426874 -0.037428
				CHANNELS 3 Zrotation Yrotation Xrotation
				JOINT ltoe
				{
					OFFSET 0.041054 -0.060286 0.122042
					CHANNELS 3 Zrotation Yrotation Xrotation
					End Site
					{
						OFFSET 0.000000 0.000000 0.000000
					}
				}
			}
		}
	}
	JOINT rhip
	{
		OFFSET -0.060310 -0.090513 -0.013543
		CHANNELS 3 Zrotation Yrotation Xrotation
		JOINT rknee
		{
			OFFSET -0.043257 -0.383688 -0.004843
			CHANNELS 3 Zrotation Yrotation Xrotation
			JOINT rankle
			{
				OFFSET 0.019056 -0.420046 -0.034562
				CHANNELS 3 Zrotation Yrotation Xrotation
				JOINT rtoe
				{
					OFFSET -0.034840 -0.062106 0.130323
					CHANNELS 3 Zrotation Yrotation Xrotation
					End Site
					{
						OFFSET 0.000000 0.000000 0.000000
					}
				}
			}
		}
	}
	JOINT lowerback
	{
		OFFSET 0.004439 0.124404 -0.038385
		CHANNELS 3 Zrotation Yrotation Xrotation
		JOINT upperback
		{
			OFFSET 0.004488 0.137956 0.026820
			CHANNELS 3 Zrotation Yrotation Xrotation
			JOINT chest
			{
				OFFSET -0.002265 0.056032 0.002855
				CHANNELS 3 Zrotation Yrotation Xrotation
				JOINT lowerneck
				{
					OFFSET -0.013390 0.211636 -0.033468
					CHANNELS 3 Zrotation Yrotation Xrotation
					JOINT upperneck
					{
						OFFSET 0.010113 0.088937 0.050410
						CHANNELS 3 Zrotation Yrotation Xrotation
						End Site
						{
							OFFSET 0.000000 0.000000 0.000000
						}
					}
				}
				JOINT lclavicle
				{
					OFFSET 0.071702 0.114000 -0.018898
					CHANNELS 3 Zrotation Yrotation Xrotation
					JOINT lshoulder
					{
						OFFSET 0.122921 0.045205 -0.019046
						CHANNELS 3 Zrotation Yrotation Xrotation
						JOINT lelbow
						{
							OFFSET 0.255332 -0.015649 -0.022946
							CHANNELS 3 Zrotation Yrotation Xrotation
							JOINT lwrist
							{
								OFFSET 0.265709 0.012698 -0.007375
								CHANNELS 3 Zrotation Yrotation Xrotation
								End Site
								{
									OFFSET 0.000000 0.000000 0.000000
								}
							}
						}
					}
				}
				JOINT rclavicle
				{
					OFFSET -0.082954 0.112472 -0.023707
					CHANNELS 3 Zrotation Yrotation Xrotation
					JOINT rshoulder
					{
						OFFSET -0.113228 0.046853 -0.008472
						CHANNELS 3 Zrotation Yrotation Xrotation
						JOINT relbow
						{
							OFFSET -0.260127 -0.014369 -0.031269
							CHANNELS 3 Zrotation Yrotation Xrotation
							JOINT rwrist
							{
								OFFSET -0.269108 0.006794 -0.006027
								CHANNELS 3 Zrotation Yrotation Xrotation
								End Site
								{
									OFFSET 0.000000 0.000000 0.000000
								}
							}
						}
					}
				}
			}
		}
	}
}
MOTION
Frames: 13
Frame Time: 0.033333
-0.654677 0.285831 1.005470 90.303865 0.342496 86.526253 1.677581 0.946394 4.347805 -4.029491 -9.741947 5.074470 2.758200 5.638026 -10.400159 0.000000 -0.000000 0.000000 -1.990735 -2.234947 -0.298354 0.205023 -0.072798 13.251349 3.917075 -7.583227 -10.405256 0.000000 -0.000000 0.000000 0.557217 -0.440247 9.771249 1.002658 -0.676899 -4.364020 -0.384262 -2.649765 -0.609196 1.404924 1.006525 -8.656751 -3.940072 -5.513510 11.944544 -28.154961 8.679559 1.342274 -55.751563 -4.431054 9.364714 5.468049 -25.352438 9.847068 -4.310055 -4.661288 -6.825705 30.850183 -2.228702 -2.616466 53.426373 3.936063 14.563442 -10.154238 17.806130 -5.986579 6.374369 3.370189 -6.501088 
-0.654389 0.285771 1.005602 90.116553 0.336470 86.549176 1.630439 0.905280 4.389910 -3.963190 -9.631656 5.033336 2.916634 5.701396 -10.276751 0.000000 -0.000000 0.000000 -2.000096 -2.173889 -0.306284 0.157927 -0.157818 13.234411 3.889162 -7.402596 -10.326892 0.000000 -0.000000 0.000000 0.602905 -0.450799 9.531769 1.069522 -0.680302 -4.052148 -0.339263 -2.677339 -0.673631 1.344107 1.312537 -8.352363 -4.057210 -5.091696 11.662747 -28.123510 8.478200 1.773139 -55.686432 -4.249267 9.356653 5.849677 -26.572868 10.224068 -5.668046 -3.765025 -6.104015 30.750210 -2.032073 -2.248881 53.403742 4.132555 14.281601 -10.482767 18.180499 -6.433820 6.655837 3.061175 -6.397551 
-0.654208 0.285582 1.005658 89.934383 0.361202 86.557160 1.668326 0.973191 4.447227 -3.992080 -9.726320 4.915648 2.919185 5.902839 -10.291776 0.000000 -0.000000 0.000000 -1.962211 -2.149999 -0.305585 0.214501 0.077788 13.131408 3.773448 -7.512220 -10.272797 0.000000 -0.000000 0.000000 0.646880 -0.444953 9.303097 1.126065 -0.654629 -3.846528 -0.224023 -2.637017 -0.523052 1.075073 1.551899 -8.309693 -3.855877 -4.708229 11.235340 -27.825666 8.445427 1.821037 -56.087227 -4.255375 9.342521 5.664265 -25.942336 10.011379 -4.390714 -4.137914 -7.410602 30.499316 -2.022586 -2.307670 53.367304 4.282405 14.351017 -10.371290 18.460873 -6.131746 6.309144 3.171857 -7.026399 
-0.654423 0.285621 1.005997 89.842117 0.330128 86.648419 1.597459 0.956998 4.324200 -3.946305 -9.642352 4.963903 2.919677 5.886096 -10.257129 0.000000 -0.000000 0.000000 -2.026477 -2.108965 -0.365879 0.217261 -0.042716 13.043020 3.860761 -7.284872 -10.210064 0.000000 -0.000000 0.000000 0.767277 -0.463798 9.282367 1.098405 -0.668920 -3.829338 -0.238891 -2.615686 -0.501845 1.025318 1.704402 -8.404769 -3.946726 -4.558290 11.124277 -27.768110 8.486775 1.853385 -55.984055 -4.134854 9.289142 5.754598 -26.706191 10.222255 -5.027754 -3.607216 -6.623682 30.423989 -2.010541 -2.202156 53.303068 4.438135 14.159308 -10.468527 18.973807 -6.352822 6.528114 3.023615 -6.687109 
-0.654021 0.285673 1.006105 89.705843 0.294140 86.723498 1.552111 0.940636 4.355593 -3.887885 -9.502935 4.799337 2.949657 5.876655 -10.149455 0.000000 -0.000000 0.000000 -2.070288 -2.084376 -0.416033 0.190122 -0.108949 13.018507 3.902320 -7.178697 -10.153518 0.000000 -0.000000 0.000000 0.876895 -0.444410 9.249054 1.069079 -0.584819 -3.813477 -0.244780 -2.566643 -0.539949 0.920779 1.817360 -8.261885 -3.951342 -4.277848 11.039479 -27.630844 8.512939 1.917289 -56.065678 -3.920425 9.278020 5.857956 -26.911617 10.148682 -4.881717 -3.889302 -6.712447 30.151397 -1.986277 -1.961317 53.485015 4.373804 14.146691 -10.724034 19.505663 -6.578994 6.553458 3.238333 -7.117624 
-0.653947 0.285836 1.006182 89.692108 0.273547 86.688914 1.560660 1.015815 4.381831 -3.906001 -9.472503 4.871069 2.904392 5.789745 -10.300228 0.000000 -0.000000 0.000000 -2.083962 -2.104443 -0.333404 0.160166 -0.102323 12.972853 3.977589 -7.202821 -10.136409 0.000000 -0.000000 0.000000 1.016813 -0.443929 9.358038 1.050107 -0.570907 -3.795994 -0.284367 -2.515830 -0.500634 0.799629 2.106115 -8.681815 -3.974965 -3.999622 11.471571 -27.622544 8.555029 1.947168 -55.954713 -3.902660 9.266606 5.999280 -27.245645 10.349271 -4.671975 -3.964336 -6.312852 30.104783 -2.043130 -2.063495 53.369337 4.490274 14.063004 -10.704496 19.837685 -6.642604 6.542833 3.355285 -7.021827 
-0.653868 0.285916 1.006312 89.730936 0.248200 86.695436 1.543600 0.970409 4.368836 -3.910085 -9.453193 4.855455 2.825075 5.834408 -10.294031 0.000000 -0.000000 0.000000 -2.114622 -2.062101 -0.204349 0.207160 -0.075975 12.747241 3.934914 -7.266715 -10.035715 0.000000 -0.000000 0.000000 1.106295 -0.398388 9.511566 1.065741 -0.565203 -3.867444 -0.233375 -2.569667 -0.454578 0.646740 1.994133 -8.993537 -4.072379 -3.883910 11.444507 -27.574979 8.367191 1.964338 -56.020527 -3.797569 9.215177 5.758347 -26.506558 9.785369 -4.195330 -4.563978 -7.709639 29.915284 -2.008580 -1.917070 53.248861 4.522909 14.197297 -10.618436 20.330289 -6.527287 6.164869 3.545974 -7.617996 
-0.653633 0.285834 1.006425 89.801070 0.246963 86.687057 1.532042 0.944883 4.410651 -3.894113 -9.493529 4.836785 2.927132 5.824909 -10.203656 0.000000 -0.000000 0.000000 -2.123714 -2.091197 -0.112445 0.209485 -0.152887 12.651816 3.893235 -7.213314 -10.013992 0.000000 -0.000000 0.000000 1.194643 -0.371179 9.321463 1.107834 -0.553552 -3.700870 -0.238725 -2.494017 -0.418182 0.519569 2.067204 -8.661509 -4.108876 -3.851128 11.273714 -27.513654 8.450539 2.016953 -56.090262 -3.869440 9.219718 5.814584 -27.132894 9.951179 -4.525104 -3.688644 -7.320646 29.870095 -1.935352 -1.767352 53.150259 4.644210 14.058748 -10.813932 20.483242 -6.672193 6.325051 3.359508 -7.431431 
-0.653295 0.285736 1.006300 89.788460 0.205050 86.703060 1.491410 0.943978 4.386483 -3.904017 -9.564548 4.888038 3.043239 5.919648 -10.249617 0.000000 -0.000000 0.000000 -2.169664 -2.074445 -0.089844 0.230029 -0.176861 12.617102 3.865577 -7.186991 -9.956959 0.000000 -0.000000 0.000000 1.191146 -0.367230 9.143502 1.100324 -0.482721 -3.632081 -0.224184 -2.429950 -0.499530 0.515707 1.999294 -8.087222 -4.048566 -3.733544 11.189063 -27.369153 8.391421 2.242332 -56.269516 -3.731421 9.136283 5.952007 -27.183084 9.851816 -4.850984 -3.463364 -7.625996 29.744948 -1.826758 -1.434656 53.177181 4.711831 13.928684 -10.970623 20.404631 -6.853981 6.348887 3.369226 -7.519051 
-0.653236 0.285480 1.006359 89.850856 0.174217 86.605979 1.464572 0.945240 4.471054 -3.899226 -9.558995 4.908474 2.939302 5.847978 -10.283491 0.000000 -0.000000 0.000000 -2.172936 -2.117508 -0.052005 0.204116 -0.183972 12.735905 3.909582 -7.169398 -10.133202 0.000000 -0.000000 0.000000 1.221288 -0.342298 9.179748 1.083759 -0.417103 -3.656865 -0.263427 -2.452546 -0.437752 0.569566 2.056829 -8.036665 -4.095249 -3.750483 11.258490 -27.464493 8.347291 2.165392 -56.108755 -3.854451 9.137281 6.015283 -26.588029 9.699615 -4.752710 -4.356829 -7.544101 29.743268 -1.744755 -1.581116 53.130193 4.881384 13.937549 -10.893046 20.139308 -7.026366 6.236240 3.389755 -7.714190 
-0.653052 0.285291 1.006395 89.953687 0.146934 86.659387 1.434217 0.859290 4.364400 -3.908652 -9.629770 5.043686 3.009329 5.923870 -10.452757 0.000000 -0.000000 0.000000 -2.190315 -2.195839 -0.129265 0.216560 -0.179726 12.807024 3.865604 -7.206907 -10.090055 0.000000 -0.000000 0.000000 1.234205 -0.333762 9.185793 1.066821 -0.328178 -3.687877 -0.230516 -2.330196 -0.500675 0.519104 1.761890 -8.041843 -3.920302 -4.005541 11.196279 -27.390113 8.372325 2.253125 -56.204761 -3.765380 9.099219 5.910446 -27.211925 9.817266 -4.485671 -3.297558 -7.732728 29.611280 -1.859488 -1.693946 53.179711 4.789286 13.682734 -10.845261 20.163140 -6.948004 6.146380 3.153903 -7.589578 
-0.652717 0.284880 1.006396 90.125752 0.131609 86.556007 1.469780 0.873299 4.330777 -3.972160 -9.562404 5.337788 2.985698 5.687340 -10.508079 0.000000 -0.000000 0.000000 -2.186773 -2.236863 0.024631 0.215274 -0.261846 12.831979 3.823651 -7.217236 -10.207773 0.000000 -0.000000 0.000000 1.282979 -0.195489 9.244645 1.077415 -0.369622 -3.709330 -0.298323 -2.311314 -0.452392 0.597091 1.648410 -8.102400 -3.876967 -4.256013 11.378758 -27.384968 8.322926 2.162057 -56.147331 -3.846278 9.139471 5.891378 -26.698971 9.889604 -4.669178 -4.248156 -7.453100 29.565168 -1.965959 -1.857094 53.229767 4.736440 13.678979 -10.905652 20.021225 -6.942679 6.249168 3.475175 -7.814335 
-0.652538 0.284470 1.006417 90.139963 0.126811 86.532550 1.494220 0.818186 4.409347 -3.993923 -9.635911 5.252722 3.039171 5.800084 -10.496952 0.000000 -0.000000 0.000000 -2.171413 -2.212175 0.074914 0.238639 -0.256440 12.806665 3.816172 -7.256914 -10.196843 0.000000 -0.000000 0.000000 1.248860 -0.125016 9.267286 1.097631 -0.278085 -3.757674 -0.219750 -2.275734 -0.464468 0.657765 1.365618 -8.142622 -3.854610 -4.400767 11.350897 -27.370726 8.337658 2.050766 -56.208147 -3.679037 9.119000 5.737788 -26.339873 9.934538 -4.587878 -4.361516 -7.856992 29.590068 -2.002109 -1.715783 53.068170 4.794789 13.667585 -10.923805 20.110432 -6.719734 6.178198 3.327771 -7.655897 
